Coordinates
version=1
nRows=32
nColumns=12
inDegrees=yes

Units are S.I. units (second, meters, Newtons, ...)
Angles are in degrees

endheader
time	SC_y	SC_z	SC_x	AC_y	AC_z	AC_x	GH_y	GH_z	GH_yy	EL_x	PS_y
       0.0              -52.31          22.09          47.47          48.69          -9.17          9.343          104.8          32.46          20.92          61.21          134.0
   0.02286               -52.3          22.09          47.46          48.69         -9.171          9.342          104.8          32.47          20.92          61.22          134.0
   0.04573               -52.3          22.09          47.46          48.69         -9.172          9.341          104.8          32.47          20.93          61.23          134.0
   0.06859               -52.3          22.08          47.45          48.69         -9.174          9.339          104.8          32.48          20.93          61.24          134.0
   0.09145               -52.3          22.08          47.45          48.69         -9.175          9.338          104.8          32.49          20.94          61.25          133.9
    0.1143               -52.3          22.08          47.44          48.69         -9.176          9.337          104.8           32.5          20.94          61.26          133.9
    0.1372               -52.3          22.07          47.43          48.69         -9.178          9.336          104.7          32.51          20.95          61.28          133.9
      0.16              -52.29          22.07          47.43          48.69         -9.179          9.334          104.7          32.52          20.96          61.29          133.9
    0.1829              -52.29          22.06          47.42          48.69         -9.181          9.333          104.7          32.53          20.97          61.31          133.9
    0.2058              -52.29          22.06          47.41          48.69         -9.183          9.331          104.7          32.54          20.97          61.32          133.9
    0.2286              -52.29          22.05           47.4          48.69         -9.185          9.329          104.6          32.56          20.98          61.34          133.9
    0.2515              -52.28          22.05          47.39          48.68         -9.187          9.327          104.6          32.57          20.99          61.36          133.9
    0.2744              -52.28          22.04          47.38          48.68         -9.189          9.325          104.6          32.58           21.0          61.38          133.9
    0.2972              -52.28          22.04          47.37          48.68         -9.192          9.323          104.6           32.6          21.02           61.4          133.9
    0.3201              -52.27          22.03          47.36          48.68         -9.195          9.321          104.5          32.62          21.03          61.43          133.9
     0.343              -52.27          22.02          47.34          48.68         -9.198          9.318          104.5          32.64          21.04          61.45          133.9
    0.3658              -52.26          22.01          47.33          48.68         -9.201          9.315          104.4          32.66          21.06          61.48          133.8
    0.3887              -52.26           22.0          47.31          48.68         -9.204          9.312          104.4          32.68          21.07          61.51          133.8
    0.4115              -52.25          21.99          47.29          48.68         -9.208          9.309          104.3           32.7          21.09          61.55          133.8
    0.4344              -52.25          21.98          47.28          48.68         -9.212          9.305          104.3          32.73          21.11          61.58          133.8
    0.4573              -52.24          21.97          47.25          48.68         -9.217          9.301          104.2          32.76          21.13          61.63          133.8
    0.4801              -52.24          21.96          47.23          48.68         -9.222          9.297          104.2          32.79          21.15          61.67          133.8
     0.503              -52.23          21.94          47.21          48.68         -9.227          9.292          104.1          32.83          21.18          61.72          133.7
    0.5259              -52.22          21.93          47.18          48.68         -9.233          9.287          104.0          32.87           21.2          61.77          133.7
    0.5487              -52.21          21.91          47.15          48.68          -9.24          9.281          103.9          32.91          21.23          61.84          133.7
    0.5716               -52.2          21.89          47.11          48.68         -9.248          9.274          103.8          32.96          21.27           61.9          133.7
    0.5945              -52.19          21.87          47.07          48.68         -9.256          9.267          103.7          33.02          21.31          61.98          133.6
    0.6173              -52.17          21.84          47.03          48.67         -9.266          9.258          103.6          33.08          21.35          62.06          133.6
    0.6402              -52.16          21.81          46.98          48.67         -9.277          9.249          103.4          33.15           21.4          62.16          133.6
     0.663              -52.14          21.78          46.92          48.67         -9.289          9.238          103.3          33.23          21.46          62.27          133.5
    0.6859              -52.12          21.74          46.86          48.67         -9.303          9.225          103.1          33.32          21.52           62.4          133.5
    0.7088               -52.1           21.7          46.78          48.67         -9.319          9.211          102.9          33.42          21.59          62.54          133.4
